<?xml version="1.0" standalone="no"?><!DOCTYPE svg PUBLIC "-//W3C//DTD SVG 1.1//EN" "http://www.w3.org/Graphics/SVG/1.1/DTD/svg11.dtd"><svg t="1643216994281" class="icon" viewBox="0 0 1024 1024" version="1.1" xmlns="http://www.w3.org/2000/svg" p-id="13764" xmlns:xlink="http://www.w3.org/1999/xlink" width="20" height="20"><defs><style type="text/css"></style></defs><path d="M928 64H160a32 32 0 0 0-32 32v256a32 32 0 0 0 32 32h224v544a32 32 0 0 0 32 32h256a32 32 0 0 0 32-32V384h224a32 32 0 0 0 32-32V96a32 32 0 0 0-32-32z m-32 64v64H192v-64zM448 384h64v512h-64z m192 512h-64V352a32 32 0 0 0-32-32H192v-64h384a64.07 64.07 0 0 1 64 64z m64-576a127.23 127.23 0 0 0-17.18-64H896v64z" fill="#1296db" p-id="13765" data-spm-anchor-id="a313x.7781069.0.i10" class="selected"></path></svg>